HIERARCHY
ROOT Hips
{
  OFFSET 1.44925e-005 102.336 -0.101585
  CHANNELS 6 Xposition Yposition Zposition Zrotation Xrotation Yrotation
  JOINT LeftUpLeg
  {
    OFFSET 8.9458 -8.66707 0.101652
    CHANNELS 3 Zrotation Xrotation Yrotation
    JOINT LeftLeg
    {
      OFFSET 0 -44.4227 1.3727
      CHANNELS 3 Zrotation Xrotation Yrotation
      JOINT LeftFoot
      {
        OFFSET -0.253549 -42.0924 -1.46059
        CHANNELS 3 Zrotation Xrotation Yrotation
        JOINT LeftToes
        {
          OFFSET -0.04 -4.41509 8.4991
          CHANNELS 3 Zrotation Xrotation Yrotation
          End Site
          {
            OFFSET 0.08 -0.047448 9.77979
          }
        }
      }
    }
  }
  JOINT Spine
  {
    OFFSET 0 11.8905 0
    CHANNELS 3 Zrotation Xrotation Yrotation
    JOINT Spine1
    {
      OFFSET 0 25.6574 0.127663
      CHANNELS 3 Zrotation Xrotation Yrotation
      JOINT RightShoulder
      {
        OFFSET -8.99 -0.362252 -0.22
        CHANNELS 3 Zrotation Xrotation Yrotation
        JOINT RightArm
        {
          OFFSET -10.2827 -0.00338 0.322123
          CHANNELS 3 Zrotation Xrotation Yrotation
          JOINT RightForeArm
          {
            OFFSET -26.364 0.099144 -1.42434
            CHANNELS 3 Zrotation Xrotation Yrotation
            JOINT RightHand
            {
              OFFSET -22.0324 0.085362 1.02216
              CHANNELS 3 Zrotation Xrotation Yrotation
              End Site
              {
                OFFSET -13.3284 -0.6 1.50291
              }
            }
          }
        }
      }
      JOINT LeftShoulder1
      {
        OFFSET 8.99 -0.362252 -0.22
        CHANNELS 3 Zrotation Xrotation Yrotation
        JOINT LeftArm
        {
          OFFSET 10.2827 -0.00337999 0.322123
          CHANNELS 3 Zrotation Xrotation Yrotation
          JOINT LeftForeArm
          {
            OFFSET 26.2597 0.099144 -1.42434
            CHANNELS 3 Zrotation Xrotation Yrotation
            JOINT LeftHand
            {
              OFFSET 22.0902 0.085362 1.02216
              CHANNELS 3 Zrotation Xrotation Yrotation
              End Site
              {
                OFFSET 13.419 -0.6 1.50291
              }
            }
          }
        }
      }
      JOINT Head
      {
        OFFSET 0 8.73416 0.011341
        CHANNELS 3 Zrotation Xrotation Yrotation
        End Site
        {
          OFFSET -0.29 12.7742 2.51395
        }
      }
    }
  }
  JOINT RightUpLeg
  {
    OFFSET -8.9458 -8.66707 0.101652
    CHANNELS 3 Zrotation Xrotation Yrotation
    JOINT RightLeg
    {
      OFFSET 0 -44.4227 1.3727
      CHANNELS 3 Zrotation Xrotation Yrotation
      JOINT RightFoot
      {
        OFFSET 0.253549 -42.0924 -1.46059
        CHANNELS 3 Zrotation Xrotation Yrotation
        JOINT RightToes
        {
          OFFSET 0.04 -4.41509 8.4991
          CHANNELS 3 Zrotation Xrotation Yrotation
          End Site
          {
            OFFSET -0.08 -0.137448 9.77979
          }
        }
      }
    }
  }
}
MOTION
Frames:	8
Frame Time:	0.0333333
194.725 103.053 7.63628 -5.61997 -0.461846 -90.4548 -2.89398 1.74518 1.1833 -0.433145 8.34549 18.829 -0.43372 -10.0923 0.0313558 -1.38309e-009 8.75194e-006 -1.46472e-008 0.52819 7.295 -0.694272 -1.81043 -1.6643 -0.319121 37.8937 1.73934 -0.0617255 40.7304 -18.9049 5.4952 8.4742 37.5981 7.78936 -13.384 9.19325 1.06327 -45.7567 3.56178 -3.2723 -25.2575 -11.1361 1.59635 -5.7775 33.7673 -13.7174 5.82328 9.61819 -0.917488 1.52123 -4.24512 -3.06371 -1.06759 1.01373 -3.86665 -0.603741 11.9105 -9.03938 3.39849 -12.1815 -0.0710474 0.0462048 0.000530889 0.662642 
194.743 103.053 7.63144 -5.65778 -0.43805 -90.4882 -2.86953 1.76841 1.20326 -0.423424 8.37421 18.8654 -0.548651 -10.1007 0.0313566 -1.38309e-009 8.75194e-006 -1.46472e-008 0.594984 7.41337 -0.693107 -1.88258 -1.77609 -0.305775 37.9565 1.73934 -0.0617255 40.683 -18.9022 5.47995 8.46741 37.6422 7.79626 -13.4513 9.17875 1.16211 -45.7028 3.5572 -3.27119 -25.2904 -11.0975 1.62575 -5.74835 33.7121 -13.7639 5.82328 9.61819 -0.917488 1.56163 -4.06051 -2.90987 -1.04059 1.05196 -3.8508 -0.603021 11.8851 -9.01956 3.39597 -12.169 -0.0710441 0.0462048 0.000530889 0.662642 
194.772 103.053 7.6158 -5.72368 -0.408051 -90.5493 -2.82713 1.83265 1.24413 -0.424059 8.38121 18.9114 -0.717006 -10.0846 0.031355 -1.38309e-009 8.75194e-006 -1.46472e-008 0.634658 7.65253 -0.669593 -1.9149 -2.01027 -0.277672 38.009 1.7394 -0.0617255 40.645 -18.8673 5.45097 8.49911 37.6956 7.75744 -13.6487 9.13412 1.46575 -45.624 3.5484 -3.26607 -25.3554 -11.0772 1.68054 -5.70803 33.679 -13.8158 5.82328 9.61819 -0.917488 1.53169 -4.13905 -3.03768 -1.00675 1.12358 -3.84426 -0.593859 11.83 -8.97599 3.38111 -12.1293 -0.0710335 0.0462048 0.000530889 0.662642 
194.807 103.053 7.59841 -5.76462 -0.394924 -90.592 -2.79245 1.87191 1.28084 -0.441742 8.36229 18.9221 -0.788121 -10.0517 0.0313519 -1.38309e-009 8.75194e-006 -1.46472e-008 0.610329 7.86707 -0.642304 -1.87377 -2.2147 -0.259108 38.0019 1.73951 -0.0617255 40.645 -18.767 5.44173 8.55223 37.6795 7.71535 -13.8269 9.09399 1.73072 -45.5489 3.53935 -3.25958 -25.4439 -11.1792 1.70719 -5.66505 33.8292 -13.8236 5.82328 9.61819 -0.917488 1.55515 -4.20092 -3.0768 -0.992592 1.16548 -3.8546 -0.576806 11.7775 -8.93786 3.35679 -12.0872 -0.0710223 0.0462048 0.000530889 0.662642 
194.851 103.053 7.58852 -5.76682 -0.386552 -90.5828 -2.76834 1.83412 1.2975 -0.453205 8.37015 18.8864 -0.713247 -10.0471 0.0313514 -1.38309e-009 8.75194e-006 -1.46472e-008 0.590734 8.00092 -0.647319 -1.83164 -2.33274 -0.273742 38.0203 1.73943 -0.0598791 40.5987 -18.6626 5.46661 8.58077 37.6537 7.70141 -13.8577 9.08568 1.78732 -45.4803 3.53202 -3.25553 -25.5313 -11.3977 1.69874 -5.66022 34.1383 -13.7483 5.82328 9.61819 -0.917488 1.73835 -3.76477 -2.56306 -0.982229 1.16161 -3.85504 -0.560099 11.736 -8.95535 3.35642 -12.0577 -0.0710145 0.0462048 0.000530889 0.662642 
194.898 103.053 7.58346 -5.76689 -0.366309 -90.5371 -2.74506 1.76913 1.30057 -0.442493 8.41513 18.8337 -0.592155 -10.0746 0.0313541 -1.38309e-009 8.75194e-006 -1.46472e-008 0.606919 8.10613 -0.67707 -1.81119 -2.41261 -0.309407 38.1155 1.7392 -0.0522664 40.4682 -18.6065 5.49751 8.59148 37.6603 7.69449 -13.8065 9.09074 1.77533 -45.4475 3.52768 -3.2514 -25.5664 -11.5354 1.68708 -5.72088 34.3679 -13.6237 5.82328 9.61819 -0.917488 1.89795 -3.12263 -2.01708 -0.953335 1.16008 -3.83236 -0.549854 11.6903 -9.03226 3.38371 -12.0246 -0.0710057 0.0462048 0.000530889 0.662642 
194.938 103.053 7.5773 -5.79308 -0.348181 -90.4996 -2.72785 1.75821 1.30295 -0.425593 8.44689 18.8052 -0.5559 -10.0894 0.0313555 -1.38309e-009 8.75194e-006 -1.46472e-008 0.614095 8.214 -0.689554 -1.7734 -2.46482 -0.329437 38.1869 1.73883 -0.0453816 40.3609 -18.531 5.4984 8.58523 37.6194 7.72707 -13.7819 9.08863 1.85079 -45.4785 3.52663 -3.24453 -25.5304 -11.436 1.67781 -5.77771 34.4025 -13.5622 5.82328 9.61819 -0.917488 1.90543 -3.27009 -2.2552 -0.923182 1.18836 -3.81155 -0.542655 11.6497 -9.10163 3.39912 -11.9886 -0.0709962 0.0462048 0.000530889 0.662642 
194.967 103.053 7.57326 -5.82479 -0.353559 -90.4932 -2.73119 1.7917 1.30117 -0.424067 8.43469 18.8139 -0.614496 -10.0678 0.0313534 -1.38309e-009 8.75194e-006 -1.46472e-008 0.580049 8.30642 -0.67404 -1.70195 -2.47255 -0.32623 38.1194 1.73835 -0.0433397 40.3889 -18.3927 5.47474 8.522 37.5491 7.85288 -13.7524 9.08413 1.94412 -45.5502 3.52912 -3.24015 -25.468 -11.2689 1.66079 -5.77932 34.4098 -13.5742 5.82328 9.61819 -0.917488 1.7646 -4.02548 -3.09154 -0.925649 1.20539 -3.81791 -0.544219 11.6493 -9.10803 3.38668 -11.9806 -0.0709941 0.0462048 0.000530889 0.662642 
